<?xml version="1.0" encoding="UTF-8"?>
<svg width="512" height="512" viewBox="0 0 512 512" fill="none" xmlns="http://www.w3.org/2000/svg">
  <path d="M256 32C132.3 32 32 132.3 32 256s100.3 224 224 224 224-100.3 224-224S379.7 32 256 32zm128 277.3c0 25.3-20.5 45.8-45.8 45.8h-164.4c-25.3 0-45.8-20.5-45.8-45.8v-82.5c0-25.3 20.5-45.8 45.8-45.8h164.4c25.3 0 45.8 20.5 45.8 45.8v82.5z" fill="white"/>
  <path d="M338.2 181h-164.4c-25.3 0-45.8 20.5-45.8 45.8v82.5c0 25.3 20.5 45.8 45.8 45.8h164.4c25.3 0 45.8-20.5 45.8-45.8v-82.5c0-25.3-20.5-45.8-45.8-45.8zm-82.2 129.3c-22.1 0-40-17.9-40-40s17.9-40 40-40 40 17.9 40 40-17.9 40-40 40z" fill="white"/>
</svg>